<?xml version="1.0" encoding="UTF-8"?>
<svg version="1.1" viewBox="0 0 2000 2000" width="500" height="500" xmlns="http://www.w3.org/2000/svg">
<path transform="translate(1350,440)" d="m0 0h29l17 3 16 5 16 8 11 8 12 11 10 12 9 16 6 17 3 15 3 24v39l-3 17-6 15-11 18-7 10-14 21 1 5 6 11 12 20 14 27 7 16 6 18 5 22 3 20 1 11v45l-2 21-5 27-7 24-7 20-12 25-14 24-14 19-10 11-7 8-17 17-11 9-12 10-17 12-19 11-16 8-17 8-18 7-35 11-45 12-50 12-40 10-29 9-19 7-29 14-22 12-16 9-3 1v5l4 2 21-1 25-4 22-2 19-3h9l16 3 13 5 16 9 5 2 16-11 11-5 6-1h19l13 3 14 7 8 8 10 15 7 6 4 1 6-8 7-10 6-7 11-7 15-5 19-1 2-9 2-15 8-16 8-10 9-8 10-6 16-5h27l12 3 13 7 10 9 6 7 7 14 4 13 4 21 1 3 11-3 14-6 12-3 13-1h13l17 2 13 4 11 6 6-1 15-5 20-4 10-1h15l19 3 13 5 11 7 9 9 9 14 3 10v20l-2 10v14l7 31 2 18v21l-3 16-5 13-7 11-9 10-8 7-11 7-15 6-18 5-5 1h-21l-35-9h-7l-29 7-12 2h-24l-23-5-17-5-14-5-6 1-13 8-17 6-11 1h-9l-13-2-10-3-8 1-8 3-6 1h-18l-13-4-10-4-5 1-11 6-15 3-16-1-15-4-15-8-4-2-6 1-11 4-16 2h-16l-14-3-14-7-7 1-16 6-28 7-7 1h-15l-20-4-24-8-9-4-20 8-26 7-5 1h-26l-19-4-15-5-15-8-13-9-5-1-23 13-14 6-17 5-16 3h-22l-23-5-17-6-16-8-15-8h-6l-7 9-9 8-13 6-13 3h-12l-14-3-16-6-13-6-7 1-11 7-16 7-8 2-17 1-18-2-3-1h-11l-8 2h-15l-12-2-19-6h-7l-15 4-6 1-46 1-5-3-8-10-7-15-3-14-1-10v-156l3-17 4-9 6-9 7-8 10-7 15-5 6-1h19l12 3 10 5 12 11 7 10 4 5 2 1 1-9 4-17 6-15 7-11 5-6 10-8 16-8 14-4h21l15 3 11 4 14 10 8 10 8 16 5 15 4 16 10 5h17l26-8 13-1 14 2 12 4 11 6 9 2h9l24-2-22-13-28-17-14-9-19-14-10-9-8-7-17-17-7-8-9-10-22-28-10-13-12-19-10-17-10-18-11-22-13-33-9-29-5-25-4-22-3-34v-46l3-30 7-35 6-22 10-26 9-19 9-16 6-11 10-15 9-12 10-13 9-10 7-8 13-13 8-7 9-8 17-13 18-13 19-11 21-11 21-9 25-9 29-7 28-4 24-2h43l41 4 24 4 24 6 21 7 29 12 29 14 20 11 26 12 27 10 25 8h2l2-4 7-10 11-12 13-17 13-15 9-11 9-10 9-11 12-13 20-20 15-11 13-8 17-7 23-5z" fill="#0D093F"/>
<path transform="translate(866,549)" d="m0 0h26l32 3 24 4 22 5 38 13 25 11 15 8 42 20 34 14 16 5v3l-11 13-6 8-13 16-13 17-12 14-14 19-12 14-8 10-14 19-7 10-1-3-5 5-3 5-5 6-2 1-3 5-13 16-12 16-4 5-20 26-26 36-8 10-8 11-14 19-2 3h-2l-2 6-6 15-2 9h-2l-2 9-9 26-2 5h-2v6l-4 10-2 9h-2l-1 10h-2v7l-4 13h-2l-1 7-6 23-2 16-2 4-6 29-4 34-1 2-4 35-6-2-23-13-14-10-28-19-18-14-13-11-11-9-13-12-26-26-9-11-13-16-13-19-11-17-11-19-9-17-12-28-9-27-4-14-4-17-3-17-2-23v-30l2-27 5-29 6-21 11-32 11-24 12-20 10-14 11-14 12-13 5-6h2l2-4h2v-2l8-7 11-10 18-13 22-14 13-8 20-9 28-10 16-5 24-5z" fill="#D74896"/>
<path transform="translate(1358,471)" d="m0 0h19l15 3 13 5 11 7 9 8 12 17 8 15 1 3v7l-3-3-4-8-5-3-9-2-1 30-2 9-5 2-5-1v-2h-4l-2 13-13 23-8 11-9 12-12 17-13 18-10 13-12 16-12 17-10 12-12 17-11 14-9 12-14 19-10 13-16 21-8 12-13 16-10 14-12 16-11 14-13 17-14 18-10 13-14 19-13 17-15 20-8 8-10 6-4-1-10-10-14-10-8-6-14-9-23-11-16-6-30-6-14-1-1-2 7-8 12-14 9-13 10-13 8-11 8-10 13-17 9-12 12-14 9-12 11-14 12-15 10-14 13-16 10-13 14-17 10-13 12-14 7-9 11-13 10-12 10-13 11-13 14-17 9-11 12-14 9-11 11-13 7-8 12-14 9-11 24-28 14-14 10-7 10-6 9-4 14-4z" fill="#07A1FD"/>
<path transform="translate(1021,776)" d="m0 0 2 1-1 4-6 7-2 1-3 5-13 16-12 16-4 5-20 26-26 36-8 10-8 11-14 19-2 3h-2l-2 6-6 15-2 9h-2l-2 9-9 26-2 5h-2v6l-4 10-2 9h-2l-1 10h-2v7l-4 13h-2l-1 7-6 23-2 16-2 4-6 29-4 34-1 2-4 35-6-2-23-13-14-10-28-19-18-14-13-11-11-9-13-12-26-26-9-11-13-16-13-19-11-17-11-19-9-17-12-28-9-27-4-14-4-17-2-11v-9l1-1 31-3 44-7 50-10 17-3 43-10 28-7 47-13 49-15 36-12 40-14 20-8 25-9z" fill="#E79440"/>
<path transform="translate(858,552)" d="m0 0h15l-2 6-2 1-5-1-3 1 4 2 6-1v3l-1 2 5-1v2h2l1-2 2 1 8 2v-2l4-2 3 3h5l3 3v3h5v-3l7-1h1l1-2 5 1 4 1v2h3l1-3v3l6 2 2 4v3h-5l-1 3-3-1-1 2h3l2 3v3h-2v2l6 2v1h-10l-7-1h-39l-11 1-5 2v2l9-1h5l2 1h6l1 4-2 2-5-1v1l3 1-4 2h-6v2h-7l-4 1-5-2-4 1h-10l-1 3-2 4h-4v2l-8 2-2-1-1 2-2 1 1 2h-2l1 3-1 5-3-2v-2h-2v5l-2-1-2 2 1 3 8-1 4 2h-2l1 4-5 3 1 7-8 4-3 1 3 2v3l-7 2-1 7 1 4-3 2v-2l-4-1-3 5 1 2h-3l1 4-4 2-4 6h2l1 7-3 1-4-1v7l-5 5h-2l1 4 3 1 1 3-5 2 1 3-1 2 2 1-5 1v2h-2v-2h-7l-1 5-1 2 4 1h-2l-1 4-2-2v3 4l2 1h-2v2h-2l-1 2v-2h-2l-1 3h-3l-3 7 1 1h2v2l4 2 2 2v3l4-3 2 1 1-3 2 3v3h-2l1 7 2 1-3 4-4-1-1-5 1-3-6 2-1-3 1-2h-2v-2l-7-1-1 2 2 1v2h2v6l4-1 6 3 2 3h-2l1 4-1 5h-2l-1 4h-2-6l-2 13-1 2-7 1-1 3 5 1 1-3 3-1v9l-6 2v2l2 2 4-2h3l-1 3h-3l-1 2-1 4 3 1-4 2h3l1 2 6-1 5-1 1-2-1 7-7 2-2 3-4-1 1-1h-3v3l2 2-2 1v3l-8 1 1-3-1-1-2-1 1 5-5 1-1-1-2 4-8-1v2l-6 1h-7l-3 3-13 2-3 2-10 2-7 2-2 2-6 1-4-1-3 3-2 1v1l-22 4h-3v2l-21 3-22 2-2 3-2-23v-30l2-27 5-29 6-21 11-32 11-24 12-20 10-14 11-14 12-13 5-6h2l2-4h2v-2l8-7 11-10 18-13 22-14 13-8 20-9 28-10 16-5 24-5z" fill="#E44F96"/>
<path transform="translate(1420,719)" d="m0 0 5 5 6 8 11 18 8 16 5 11 7 24 4 27v34l-4 29-6 22-6 18-9 20-9 16-9 14-12 16-12 13-7 8-16 14-13 10-14 10-22 13-14 7-28 11-34 10-30 7-67 13-9 1 2-5 13-18 9-13 12-17 8-11 13-18 7-10 14-19 7-11 12-17 10-14 8-11 16-24 12-17 10-15 10-14 13-19 12-17 8-12 21-31 12-17 13-19 7-10 11-16 10-14 2-3h2z" fill="#333C58"/>
<path transform="translate(1021,776)" d="m0 0 2 1-1 4-6 7-2 1-3 5-13 16-12 16-4 5-20 26-26 36-8 10-8 11-14 19-2 3h-2l-2 6-6 15-2 9h-2l-2 9-9 26-2 5h-2v6l-4 10-2 9h-2l-1 10h-2v7l-4 13h-2l-1 7-6 23-2 16-2 4-6 29-4 34-1 2-4 35-6-2-11-6v-3l-5-2-2-1v-2l-4-1-5-8-6-5v-2h-2v-2h-2l-6-9-6-8-2-4-5-5-2-10-1-4-1-8 3 1v2l3-1v-11h4 1l1-13 2-5 4-14 2-4 1-16 2-5-1-4 2-10 1-4 1-7 1-9 1-3 1-4v-3l1-2h2l-3-5 1-6v-3l4-15h-4l-1-6h2l1-2 3 1 4-2 3-9 3-5 1-5 3-1 5-5 1-13 1-4v-6l5-5 1-8h2l1-9 7-2 2-10v-2l-2-1 4-5 8-3 2-6 8-7 4-4 4-1 6-9-1-6-2-1v-3l-4-1v-2l-10-2-8 4h-5l-1-3 11-3 8-5 4-1 18-7 6-1 1-2 9-4 6-2 7-3 16-6 10-4 1-2 29-10 20-8 25-9z" fill="#CF7B35"/>
<path transform="translate(1358,471)" d="m0 0h19l11 2 2 4 10 3 8 4 9 6v2h2v2l4 2 6 8 1 5-3 2 2 3-5-1-3-2-26-4-9-1h-26l-9 3-5 4h-2l-2 4-12 13-7 9-12 14-13 16-12 14-8 10-11 14-10 13-14 17-20 26-14 17-18 24-10 12-24 32-10 13-9 12-12 17-10 13-10 16-12 16-18 27-12 17-10 15-12 19-10 15-6 11-3 4-2 8h-6l-20-8-30-6-14-1-1-2 7-8 12-14 9-13 10-13 8-11 8-10 13-17 9-12 12-14 9-12 11-14 12-15 10-14 13-16 10-13 14-17 10-13 12-14 7-9 11-13 10-12 10-13 11-13 14-17 9-11 12-14 9-11 11-13 7-8 12-14 9-11 24-28 14-14 10-7 10-6 9-4 14-4z" fill="#05DBFC"/>
<path transform="translate(1424,518)" d="m0 0 10 3 5 3 4 6 2 5 2-3 4 15 2 18v14l-3 12-7 14-40 60-10 14-16 24-8 11-14 21-13 18-8 11-12 17-9 13-11 15-8 12-7 10-11 15-12 17-15 22-11 15-12 17-9 12-21 30-8 11-10 14-17 25-8 10-12 17-13 18-7 8-2-1-4-11-12-25-11-16-1-4 14-12 7-7 13-17 9-11 14-19 10-13 9-12 8-11 14-18 21-28 10-13 11-14 15-20 20-26 14-19 11-15 10-14 9-12 13-17 14-18 12-16 13-18 6-9 12-16 8-12 10-16 6-10 5-15 1-4 1-14h-2l-1 6-1-4 1-3h4l2 2 7-1 2-9z" fill="#2750A8"/>
<path transform="translate(932,982)" d="m0 0 8 1 20 4 9 3 14 5 6 4v2l2 1-5 5-7 11-11 18-11 14-8-1-8-4 1 12-1 16-4 17-3 10-3 8-3 9 5-2 29-15 21-7 13-1-3-10-7-11-11-12-7-6-5-3 1-3 4-4 11-15 7-11 8-11 5-1v2l6 2 14 10 13 11 9 9 11 14 8 11 11 18 3 7v6l-13 11-24 18-13 10-25 16-19 12-17 10-21 12-16 9-44 26-12 7-2-1 3-25 7-37 4-25 5-25 6-26 5-18 6-18 7-19 7-20 9-22 3-6z" fill="#07A0FC"/>
<path transform="translate(1698,1400)" d="m0 0 1 2 4 1-5 15-8 13-9 10-8 7-11 7-15 6-18 5-5 1h-21l-35-9h-7l-29 7-12 2h-24l-23-5-17-5-14-5-6 1-13 8-17 6-11 1h-9l-13-2-10-3-8 1-8 3-6 1h-18l-13-4-10-4-5 1-11 6-15 3-16-1-15-4-15-8-4-2-6 1-11 4-16 2h-16l-14-3-14-7-7 1-16 6-28 7-7 1h-15l-20-4-24-8-9-4-20 8-26 7-5 1h-26l-19-4-15-5-15-8-13-9-5-1-23 13-14 6-17 5-16 3h-22l-23-5-17-6-16-8-15-8h-6l-7 9-9 8-13 6-13 3h-12l-14-3-16-6-13-6-7 1-11 7-16 7-8 2-17 1-18-2-3-1h-11l-8 2h-15l-12-2-19-6h-7l-15 4-6 1h-24v-2l-5-1-10-3-6-5 3-1 6 2 2-13 1-2h-2l1-3 10 6 10 3 6 1h10l14-4 9-3h6l8 4 7 1 6 2 10 2h12l9-2h11l14 3 11 1h15l12-5 10-6h2v-2l9-6 4-4 5 1 10 7 8 4 14 5 13 3h15l10-3 4-3 5-3 4-4h2l3-6h2l2-4 6-6 5 1 12 7 10 5 10 4 6 3 10 3 16 4 7 2 20 1 18-3 13-4 13-5 14-8h2v-2l5-2h3v-2l5-1 8 3 9 5 11 5v2l4 1 10 3 8 4 11 2 12 2h21l20-5 12-4 5-3h3v-2l4-2 8 1 20 7 13 4 20 4h13l18-3 17-5 12-5 4-3 5 1 10 5 9 2 10 4 10 1h12l10-4 10-6 5 1 19 9 17 4 7 1h15l9-3 9-6 5-1 10 4 7 1 7 2 13 2 14-2 6-3h9l17 4 5 1h18l13-4 10-6 4-4h2l1-3 4-1 19 7 23 6 9 1 7 2 8 1h16l24-4 11-4 13-1 14 4 21 5 19 2 18-4 10-3 3-2 7-2 9-6 5-6h2l2-5 3-1v-2h2l2-5 4-4z" fill="#1C1544"/>
<path transform="translate(1454,791)" d="m0 0h4v2h2l4 20 2 15v34l-4 29-6 22-6 18-9 20-9 16-9 14-12 16-12 13-7 8-16 14-13 10-14 10-22 13-14 7-28 11-10 3h-7l1-4 2-3h2l1-4 10-21 8-13 10-15 8-14 6-8 5-9 9-14 1-3h2l1-4 6-9 7-11h2l2-6 2-3h2l2-6 9-13 4-5 3-6 4-6h2l2-6 2-4h2l1-6 3-5h2l1-4 6-8 3-5 7-10 3-4 3-5 7-11 3-6 7-9 4-7h2l2-5 10-14 4-6z" fill="#1D8AD1"/>
<path transform="translate(1070,1261)" d="m0 0h14l20 4 16 8 9 7 7 7 7 11 5 13 2 10v19l-3 15-6 15-7 11-7 7-14 9-16 7-8 2h-24l-17-6-12-6-10-8-7-7-8-14-4-10-2-8v-28l5-17 7-12 12-13 11-7 11-5 12-3z" fill="#F8FCFD"/>
<path transform="translate(784,1261)" d="m0 0h17l20 5 15 8 11 9 8 11 5 10 4 16 1 15-3 19-5 13-7 12-8 9-6 4-14 8-14 5-5 1h-21l-12-3-16-7-11-7-7-7-7-11-5-11-3-9-1-7v-24l2-10 6-14 10-13 9-8 10-6 12-5z" fill="#F8FCFD"/>
<path transform="translate(1190,1264)" d="m0 0h11l8 5 9 13 8 14 8 13 10 18 10 15 3 5v2l4-4 12-22 8-13 11-17 9-14 7-9 9-6h7l8 4 3 3 3 11 3 17 2 10 3 22 4 22 3 18 2 10v12l-4 6-8 6-3 1h-9l-8-7-4-11-6-41-3-16v-4h-3l-2 5-12 23-12 21-8 16-6 8-6 5-5-1-8-7-7-10-13-24-18-30-5-5-3 28-5 34-5 10-5 4-4 2h-7l-8-4-5-6-1-3v-12l9-57 6-37 2-12 4-7 4-3z" fill="#F8FCFD"/>
<path transform="translate(952,801)" d="m0 0 3 1-6 4-6 2-1 5-2 2-2 6-3 7-3 3-4 9-5 5-3 6-8 11-4 7-2 4-3 3-3 5h-2l-2 5-2 1-3 7h-2l-1 5-8 14-1 2h-2l-2 5-3 4-5 10-3 4-5 17-5 9-2 2-4 16-5 7-2 7-2 3-3 12-4 14-4 9-3 18-2 11-5 30-2 4-3 14-2 9-3 28-4 18v10l3 7 4 6v2h2l5 5 12 6-1 7-5-1-9-5v-3l-5-2-2-1v-2l-4-1-5-8-6-5v-2h-2v-2h-2l-6-9-6-8-2-4-5-5-2-10-1-4-1-8 3 1v2l3-1v-11h4 1l1-13 2-5 4-14 2-4 1-16 2-5-1-4 2-10 1-4 1-7 1-9 1-3 1-4v-3l1-2h2l-3-5 1-6v-3l4-15h-4l-1-6h2l1-2 3 1 4-2 3-9 3-5 1-5 3-1 5-5 1-13 1-4v-6l5-5 1-8h2l1-9 7-2 2-10v-2l-2-1 4-5 8-3 2-6 8-7 4-4 4-1 6-9-1-6-2-1v-3l-4-1v-2l-10-2-8 4h-5l-1-3 11-3 8-5 4-1 18-7 6-1 1-2 9-4 6-2 7-3 16-6 10-4 1-2z" fill="#DE8833"/>
<path transform="translate(1350,440)" d="m0 0h29l-2 2 18 4 18 6 13 7 11 9 7 8h-3l-12-9-14-8-15-5-17-3h-32l-18 3-15 5-16 8-11 7h-2v2l-10 8-12 11-12 13-13 14-7 9h-2l-2 4-9 11-8 8-6 8-5 5-7 8-2 3h-2l-2 4-7 8-3 3-6 7h-3v2l-3 2-10-1-25-7-17-7-24-11-17-8-19-10-17-9-27-11-24-8-22-6-19-4-36-4-16-1h-31l-37 4-26 5-28 8-12 5-28 12-17 9-11 7-12 8-20 14-10 9-8 7-6 5h-2l-2 4-8 7-8 10-12 13-12 17-6 9-12 19-11 22-9 23-7 17-7 26-3 17-3 32v46l3 31 5 28 6 24 13 37 11 25 6 12 6 11 5 9v12l2 1-1 9-7-3-5-9-4-7-9-17-15-33-12-31-8-31-4-23-3-23-1-22v-28l2-30 6-37 7-27 9-24 13-29 9-17 10-15 8-11 9-12 12-14 7-7 5-6 7-6 5-6 8-7 10-9 20-15 10-7 17-11 6-1v-2l23-11 13-6 27-10 34-9 33-6v-1l13-1h43l41 4 24 4 24 6 21 7 29 12 29 14 20 11 26 12 27 10 25 8h2l2-4 7-10 11-12 13-17 13-15 9-11 9-10 9-11 12-13 20-20 15-11 13-8 17-7 23-5z" fill="#08CAF4"/>
<path transform="translate(422,1239)" d="m0 0 10 2 7 6 2 5 1 7v48l6-4 10-10 8-7 19-19 10-6h6l6 4 6 8 1 8-4 7-9 10-8 7-8 8-5 6-8 8 2 4 7 7 9 11 17 17 8 10 4 6 1 8-4 8-7 6-5 2-7-1-10-8-12-13-9-11-7-7-7-8-8-9-2-1v38l-2 8-7 7-8 3-7-1-7-4-4-4-1-3v-142l4-6 7-4z" fill="#F7FCFD"/>
<path transform="translate(1499,1261)" d="m0 0h22l20 5 9 5 6 5 3 6 1 10-3 8-7 6-2 1h-6l-14-9-9-4h-18l-12 5-9 7-6 12-3 12 1 12 5 13 8 9 12 6 7 1h14l10-3 12-7 7-1 9 6 5 9v9l-4 6-10 7-18 7-9 2h-22l-9-2-18-8-13-9-8-10-8-16-5-16-1-5v-17l5-18 7-13 9-11 8-7 12-7 16-5z" fill="#F8FCFD"/>
<path transform="translate(940,1261)" d="m0 0h22l19 5 11 6 6 7 3 9-1 6-6 8-8 5-5-1-11-7-13-5h-15l-10 3-10 6-7 9-3 9-1 6v12l2 9 6 10 9 8 10 4 7 1h10l12-3 15-7 7 2 5 4 4 8 1 7-3 7-6 7-11 5-12 4-6 1h-18l-11-2-19-8-13-9-8-8-8-13-5-12-2-11v-21l3-15 8-15 8-10 8-7 13-8 13-4z" fill="#F8FCFD"/>
<path transform="translate(1615,1263)" d="m0 0h17l13 3 8 5 6 7 1 9-6 10-7 3-9-1-8-5-3-1h-8l-6 3-1 1v6l4 4 23 11 13 7 10 9 4 5 4 13v9l-3 16-5 9-8 8-14 8-13 4h-20l-9-2-16-7-9-8-2-6v-8l6-9 8-5 6 1 14 8 9 2h9l9-3 2-4v-8l-4-5-24-12-14-8-9-8-6-11-1-4v-14l3-9 7-10 8-6 11-5z" fill="#F7FCFD"/>
<path transform="translate(1452,853)" d="m0 0 5 4v5l1-1 3 1v16l-3 18-2 13-3 14-10 24-7 13-12 20-10 13-9 11-26 26-20 15-15 10-17 10-11 3-3-1 6-3h2l1-3 7-4 2-5 1-8 4-4 2-3 3-5v-8l7-8 3-4 7-10 5-10 7-11 16-23 7-12 7-11 4-7 9-12 7-11 2-9 4-11 4-7 5-9 4-4 5-2v-2l5-5z" fill="#0BA4EA"/>
<path transform="translate(1447,766)" d="m0 0h3l5 11 4 13-1 3v-2l-4 2-3 6-9 12-5 8h-2l-2 5-4 6-6 8-4 8-6 8-3 6-4 5-6 8-3 5-5 7-1 3h-2l-1 4-3 7h-2l-2 7-2 3h-2l-2 5-3 4-4 7-6 8-6 10-1 2h-2l-2 5-2 4-3 3-8 13-4 5-1 3h-2l-1 4-8 13-7 12-6 8-9 16-7 10-9 15-9 19-2 4h-2l-2 4-1 3 4 1-29 8h-8l4-8 8-15 2-1 3-7 6-10 3-6h2l2-5 4-5 5-10 3-4h2l1-4 5-7 3-6 6-11 3-5h2l2-6 8-10 4-8 4-6h2l1-5 7-9 6-9 8-11h2l1-5 4-5 10-15 4-8 7-11 12-18h2l2-6 13-19 10-14 6-8 5-9 3-4 6-11 10-14 5-8z" fill="#2F5583"/>
<path transform="translate(932,982)" d="m0 0 8 1 20 4 9 3 14 5 6 4v2l2 1-5 5-7 11-11 18-11 14-8-1-8-4 1 12-1 16-4 17-3 10-3 8-4 3h-2l-2 6-7 5-6 11-8 10-8 13-5 8-3 6-3 4-4-1-1-1v-9l4-25 5-25 6-26 5-18 6-18 7-19 7-20 9-22 3-6z" fill="#05D9FB"/>
<path transform="translate(1424,518)" d="m0 0 10 3 5 3 4 6 2 5 2-3 4 15 2 18v14l-3 12-7 14-40 60-10 14-16 24-8 11-14 21-13 18-8 11-12 17-9 13-11 15-8 12-7 10-11 15-12 17-15 22-11 15-12 17-9 12-21 30-8 11-10 14-17 25-8 10-12 17-13 18-6 5-2-2v-8l6-12 4-5 3-5 9-13 10-14 15-20 11-15 10-13 7-10 10-15 8-13 9-11 6-9 10-14 5-9 4-5 10-13 24-33 8-12 10-14 10-15 9-12 5-9 11-15 4-6 4-5 4-7 10-14 7-10 10-15 8-11 6-8 6-9h2l2-5 8-11 5-6 2-5h2l2-4 6-11 7-11 10-17 1-3h2l1-15-1-1-2-9-3-1-3 3-6 3-1 3h-2v2l-2 1h-9l-2-2v-9h7l2-1 2-9z" fill="#1668B9"/>
<path transform="translate(696,1263)" d="m0 0 9 1 7 8 1 3v9l-3 8-13 16-8 11-9 10-6 8-1 55-4 8-7 5-8 1-8-4-6-6-1-4-1-54-11-13-7-7-11-14-9-10-5-8-1-3v-7l3-6 7-6h10l8 5 9 8 11 14 10 13 4-1 7-8 13-17 9-10 7-4z" fill="#F8FCFD"/>
<path transform="translate(1109,622)" d="m0 0 5 1 16 6 10 3v3l-11 13-6 8-13 16-13 17-12 14-14 19-12 14-8 10-14 19-7 10-1-3-5 5-10 2-28 10-10 4-12 1 2-1 2-4 4-2h3l1-3h2l1-4 5-5 3-1 1-4 3-3 1-3 6-2 2-5 4-6 3-3h2l1-4 3-5h2l1-5h2l2-5h2l2-5 4-5 4-7 5-5h2l1-3 3-4 2-4 5-2 2-5 5-5 5-7 4-4 2-4 5-5 4-5 3-3 4-6h2l3-9 4-1v-3h2l2-4 7-6h4v-2h2z" fill="#B73684"/>
<path transform="translate(1450 1e3)" d="m0 0v3l-7 12h-2l-2 5h-2l-1 5h-2v2h-2l-2 5h-2l-2 4h-2l-1 4h-2l-2 5-2 1-1 2h-3l-1 5-6 4-6 7h-4l-1 4-4 1v3l-5 1-1 4-6 2v2l-4 2-2 3h-2l-2 4-5 2v2h-2l-1 5-19 11-16 8-17 8-18 7-35 11-45 12-50 12-40 10-29 9-19 7-29 14-22 12-8 4h-13l-6 2-2-1 4-4 14-8 15-9 10-5 16-9 23-11 8-4 17-7 26-8 32-8 13-3 55-13 28-7 24-7 22-7 16-6 28-14 11-6 7-5h2l1-3 7-4 5-1 1-3 4-3h3l2-4 9-6 1-2 3-1 3-3 8-7 4-2 2-4 7-7 2-5h2l3-6h2v-2h2v-2h2l2-5 4-5 2-1v-2h2l2-5z" fill="#1D1544"/>
<path transform="translate(1072,1293)" d="m0 0h11l13 4 9 6 7 9 4 11v18l-4 12-7 9-9 6-7 3-7 1h-8l-11-2-11-6-8-9-5-12-1-13 4-16 5-8 8-7 12-5z" fill="#0F0A40"/>
<path transform="translate(787,1293)" d="m0 0h11l14 5 8 6 6 7 4 10 1 4v15l-4 12-6 8-7 6-11 5-12 1-13-2-10-5-6-5-7-11-2-7v-15l2-9 5-10 10-9 9-4z" fill="#0F0A40"/>
<path transform="translate(552,1266)" d="m0 0h8l8 4 5 8 1 2 1 79v28l-2 8-4 6-6 4-3 1h-7l-8-5-5-6-1-3v-110l2-7 5-6z" fill="#F3FBFD"/>
<path transform="translate(1389,1268)" d="m0 0h12l7 4 4 6 1 4 1 105-2 9-6 7-7 3-8-1-9-7-2-2-1-4v-114l3-5 5-4z" fill="#F9FCFD"/>
<path transform="translate(855,584)" d="m0 0h41l28 4 12 4 1 2h-10l-15-2-20-1-17 1-30 4-29 7-27 9-18 8-17 10-14 9-14 10-13 11-11 10-8 7-9 9-14 19-12 20-7 11-12 28-10 34-7 31-2 18-2 20h-2l-2-13v-30l3-24 5-22 10-28 11-24 9-15 14-19 8-10 9-10 12-12 8-7h2v-2l13-10 17-12 10-7 26-14 19-8 38-12z" fill="#FDFDFD"/>
<path transform="translate(1350,440)" d="m0 0h29l-2 2 18 4 18 6 13 7 11 9 7 8h-3l-12-9-14-8-15-5-17-3h-32l-18 3-15 5-16 8-11 7h-2v2l-10 8-12 11-12 13-13 14-7 9h-2l-2 4-9 11-8 8-6 8-5 5-7 8-2 3h-2l-2 4-7 8-3 3-6 7h-7l-22-6-18-7-15-6-30-14-18-10-25-13-27-11-27-9-24-6-26-5-14-1-9-2-10-1v-1h11l35 4 22 4 27 7 24 9 21 9 25 12 22 12 26 12 27 10 25 8h2l2-4 7-10 11-12 13-17 13-15 9-11 9-10 9-11 12-13 20-20 15-11 13-8 17-7 23-5z" fill="#171046"/>
<path transform="translate(630,1088)" d="m0 0 5 3 7 10 10 12v2l3 1v2h2l8 10 5 5 6 7 3 2v2h2l4 4v2h2l5 6 8 7 7 6 5 5 8 7 6 4v2l4 2 16 13 11 8 16 11 11 8 4 7 4 4-1 4-5 1-10-4v2h-7v-1l5-1-22-13-12-7 1-3-4-2-4-4-2-1-1-3-6-4-4-1-1-4h-2v-2l-6-2-9-7-4-1-9-7-13-12-8-8-4-6-1-4h-2l-2-4 2-1 2 2-5-8v-2l-4-2-2-6 1-2-2-5-3-3-3-7-4-6v-2l-3-1-1-5h-2l-1-4-3-1z" fill="#1A1443"/>
<path transform="translate(549,790)" d="m0 0 1 4-3 32v46l3 31 5 28 6 24 13 37 11 25 6 12 6 11 5 9v12l2 1-1 9-7-3-5-9-4-7-9-17-15-33-12-31-8-31-4-23-3-23-1-22v-28l2-30 3-20h1l-1 14-2 19v53l2 4h1l1 5 3-3v-7l-1-4v-59l1-9 1-1 2-14z" fill="#1D80CA"/>
<path transform="translate(1029,771)" d="m0 0 1 2-9 13-10 13-1 2h-2l-2 4-11 14-8 11-7 10-9 12-14 19-10 15-8 10-6 8-8 11-9 13-1 2h-2l-2 5-7 11-4 9-9 29-7 24-7 22-3 7-8 25-7 29-2 6-3 16-6 31-5 30-7 39-4-1v-11l3-25 2-10 3-26 6-29 2-4 2-16 4-16 4-14h2l1-8 2-5 1-7h2l1-10h2l2-12 3-7 1-6h2l1-5 10-28 2-7h2l1-9 6-15 3-6 4-4 13-18 12-16 10-13 7-10 13-18 8-10 9-12 21-27 11-14 4-6 8-8 3-5z" fill="#0AC6F1"/>
<path transform="translate(858,507)" d="m0 0h43l1 1 17 2 2 1 20 2 33 7 27 8 21 8 23 10 27 14 12 7 28 13 15 6 21 8 23 6v2l-3 2-10-1-25-7-17-7-24-11-17-8-19-10-17-9-27-11-24-8-22-6-19-4-36-4-16-1h-31l-37 4-11 2h-6l-1-3-7 1-6-1 4-2 23-5 22-4v-1z" fill="#1097DF"/>
<path transform="translate(415,1206)" d="m0 0h16l12 3 8 4 10 9 8 9 4 6-1 3-8-8-8-7-13-8-9-3h-20l-15 6-9 7-7 8-4 8-2 7-1 8v133l2 15 4 13 4 10 4 2-1 10v6l-1 2-5-1-9-10-4-8-2-12-1-26 1-138 3-14 9-14 11-11 14-7z" fill="#06D4F8"/>
<path transform="translate(1388,1197)" d="m0 0h13l8 3 8 7 5 9v15l-5 10-5 5-9 5-4 1h-9l-13-7-6-7-4-11v-7l3-9 9-10z" fill="#F8FCFD"/>
<path transform="translate(555,1196)" d="m0 0 13 2 8 6 5 7 2 8v8l-2 8-4 6-8 7-7 3-8 1-9-3-9-7-6-9-2-6v-7l4-11 5-6 8-5z" fill="#F7FCFD"/>
<path transform="translate(834,509)" d="m0 0h12v1l-38 7-30 8-19 7-20 8-22 11h-2v2l-8 3-12 8-10 7-19 14-11 10-8 7-3 1-2 4h-2l-2 4-4 4h-2l-2 4h-2l-2 4-9 9-8 10-13 17-14 21-12 23-11 25-6 16-6 21-3 12-3 2v-2h-2l3-15 5-18 10-26 9-19 9-16 6-11 10-15 9-12 10-13 9-10 7-8 13-13 8-7 9-8 17-13 18-13 19-11 21-11 21-9 25-9 29-7z" fill="#160F45"/>
<path transform="translate(1349,443)" d="m0 0h33l16 4 17 6 11 6 11 9 7 8h-3l-12-9-14-8-15-5-17-3h-32l-18 3-15 5-16 8-11 7h-2v2l-10 8-12 11-12 13-13 14-7 9h-2l-2 4-9 11-8 8-6 8-5 5-7 8-2 3h-2l-2 4-7 8-3 3-6 7h-3l2-6 9-11 9-10 9-11 8-10 3-3 9-11 7-7 8-10 2-3h2l2-4 9-10 16-17 14-13 13-10 9-6 12-5 21-7z" fill="#0AC2EF"/>
<path transform="translate(1454,784)" d="m0 0 2 1v2h2l1 6-1-2-4 2-3 6-9 12-5 8h-2l-2 5-4 6-6 8-4 8-6 8-3 6-4 5-6 8-3 5-5 7-1 3h-2l-1 4-3 7h-2l-2 7-2 3h-2l-2 5-3 4-4 7-6 8-6 10-1 2h-2l-2 5-2 4-3 3-8 13-4 5-1 3h-2l-1 4-8 13-7 12-6 8-9 16-7 10-9 15-9 19-2 4h-2l-2 4-1 3 4 1-5 1-3-2 6-12 7-18 4-8h2l2-5 8-12 5-7 6-11h2l2-6 6-9 7-12 1-3h2l2-5 3-6h2l2-5 3-5h2l2-4 5-9 8-12 8-11 6-10 3-3 1-2h2l2-5 7-12 4-8 8-15 6-8 1-3 2-1 4-7 5-7h2l2-5 7-11 2-3h2l2-6 7-10 4-7 1-2h2l3-6h2l1-5 3-5z" fill="#2750A8"/>
<path transform="translate(1514,1228)" d="m0 0h13l17 2 13 4 11 6 6-1 15-5 20-4 10-1h15l19 3 13 5 11 7 9 9 9 14 3 10v5l-2-4-3-8-8-11-8-8-14-8-12-4-17-2h-14l-17 2-19 4-6 1v2l-4 2h-6l-17-8-12-3-26-1-20 1-16 1 3-2 9-4 12-3z" fill="#07D0F7"/>
<path transform="translate(545,1163)" d="m0 0h23l14 4 12 6 7 5 6 7 7 12 6 16 3 15h-2l-8-23-7-12-9-10-5-4-11-5-10-3-18-1-13 2-13 5-11 8-9 9-8 13-4 10-2 8-1 17-2 1-2-1-1-4v-16l3-13 8-16 9-10 10-9 14-7z" fill="#08CDF5"/>
<path transform="translate(1380,1164)" d="m0 0h27l12 3 13 7 10 9 6 7 7 14 2 9-4-5-8-14-8-9-12-8-10-4-17-2-17 1-14 5-10 7-6 5-7 10-6 13-4 16-3 6-4-2-1-2 3-21 8-16 8-10 9-8 10-6z" fill="#0DA4E7"/>
<path transform="translate(556,978)" d="m0 0 5 5 3 4 6-2 1-2 6 16 9 20 5 10 6 11 5 9v12l2 1-1 9-7-3-5-9-4-7-9-17-15-33-8-20z" fill="#2F5582"/>
<path transform="translate(992,526)" d="m0 0 9 2 21 8 23 10 27 14 12 7 28 13 15 6 21 8 23 6v2l-3 2-10-1-25-7-17-7-24-11-17-8-19-10-17-9-27-11-24-8 3-1z" fill="#1098DF"/>
<path transform="translate(368,1254)" d="m0 0h1l1 150h3l1-1v-145h1l1 133 2 15 4 13 4 10 4 2-1 10v6l-1 2-5-1-9-10-4-8-2-12-1-26z" fill="#1C85CE"/>
<path transform="translate(691,1229)" d="m0 0 18 2 12 4 9 5 2 5 4 5v2l-4-2-12-7-12-4-5-1h-16l-10 3-8 5-5 4-4 5-3 1-1-4 5-8 10-9 3-3 8-2z" fill="#0DA5E6"/>
<path transform="translate(1186,1231)" d="m0 0h19l13 3 14 7 8 8 4 7-5-2-10-8-11-5-15-3h-10l-13 2-16 8-2 5-3 5-3-1v-8l4-6 11-7 9-4z" fill="#06D4F9"/>
<path transform="translate(924,554)" d="m0 0 19 1 27 6 38 13 21 9v3l-6-1-8-2-3-1v-2h-7l-6-2-5-1v-2l-3 1-6-2-6-1v-2h-3l-2-2h-7l-4-2v-3l-7 1-3-3-9-1h-9l-7-3-4-2z" fill="#DE4C94"/>
<path transform="translate(1360,505)" d="m0 0h26l9 1v1l-21 4-19 9-11 10-5 3-7 1-3-2 2-4 12-13 5-5 7-4z" fill="#0AA4EB"/>
<path transform="translate(1306,1234)" d="m0 0h15l6 2v3l-3 1-17 2-10 3-10 6-7 7-13 17-2 1-4-4 7-11 7-9 5-6 11-7z" fill="#05D8FB"/>
<path transform="translate(1514,1228)" d="m0 0h13l17 2 10 3 9 6-4 1 1 3-9-3-12-3-26-1-20 1-16 1 3-2 9-4 12-3z" fill="#0DA0E6"/>
<path transform="translate(1389,474)" d="m0 0 9 2 14 7 11 9 10 13 8 13 5 11v7l-3-3-4-8-5-3-9-2-1 30-2 9-5 2-5-1v-2h-3v-2l7-1 5-4 1-3v-35h6l-5-2v-1l6-2-2-6-6-7-2-1v-2h-2v-2l-5-2-7-5-15-6z" fill="#0F97DF"/>
<path transform="translate(846,1111)" d="m0 0h1v9l-4 18 1 6 2-3 1 10-7 40-4 22-4-1v-11l3-25 2-10 3-26z" fill="#0DA0E6"/>
<path transform="translate(545,1163)" d="m0 0h23l14 4 12 6 7 5 6 7 7 12 6 16 3 15h-2l-8-23-7-12-9-10-5-4-11-5-10-3-11-1-3-2 1-1-8-1v-1l-5-1z" fill="#0EA9E5"/>
<path transform="translate(1029,771)" d="m0 0 1 2-9 13-10 13-1 2h-2l-2 4-11 14-8 11-7 10-9 12-14 19-6 9-2-3 2-5 2-4 9-12 7-9 9-12 21-27 11-14 4-6 8-8 3-5z" fill="#1098E0"/>
<path transform="translate(1093,572)" d="m0 0 6 2 22 10 22 8 19 6 9 2v2l-3 2-10-1-25-7-17-7-22-10-1-4z" fill="#1390D8"/>
<path transform="translate(1630,1231)" d="m0 0h9l4 2 10-1 13 5 11 7 9 9 9 14 3 10v5l-2-4-3-8-8-11-8-8-14-8-12-4-17-2h-14l-17 1 3-3 24-2z" fill="#0E9EE3"/>
<path transform="translate(1094,1229)" d="m0 0h9l16 3 13 5 16 9 4 8-4 1-14-9-18-7-11-3-22-3-2-2z" fill="#0EA2E4"/>
<path transform="translate(1383,444)" d="m0 0 8 1 16 5 12 5 11 7 7 6 7 8h-3l-12-9-14-8-15-5-17-3-28-1 4-2v-3z" fill="#178CD3"/>
<path transform="translate(556,978)" d="m0 0 5 5 3 4 6-2 1-2 6 16 4 9v2l-7 2v5l-3 2-8-17-8-20z" fill="#2850A7"/>
<path transform="translate(756,794)" d="m0 0m-1 1m-6 1h6l8 4-2 3v2l4 1h-3l-1 4 2 2v3l-5 2-3 2-3-1 1 8-6-1-1 2-2-1-1 2-4-3 4-4h3l1-9h-2l-2 4-5-1 1-4 5-1 2 1 2-13z" fill="#D74997"/>
<path transform="translate(951,871)" d="m0 0h2l-1 2zm-1 1m-1 1 2 1-1 8-10 13-6 7-4 6-10 14-5 8h-2l-2 5-6 9h-5l2-8 4-4 13-18 12-16 10-13 7-10z" fill="#0AC5F1"/>
<path transform="translate(1404,1165)" d="m0 0h8l11 4 12 7 11 11 7 12 4 11-1 3-10-18-9-10-12-8-10-4-17-2-17 1-9 2 2-2 13-4h16l4 1v-3z" fill="#0DA3E5"/>
<path transform="translate(591,1034)" d="m0 0 4 2 5 9 2 6v10l2 1-1 9-7-3-5-9-4-7-3-5 1-7 1 2h2v-2l2-1z" fill="#323C58"/>
<path transform="translate(995 1e3)" d="m0 0h4l1 3-5 9-7 9-11 19-6 6h-7l-1-2 8-10 9-13 13-19z" fill="#0CDAFC"/>
<path transform="translate(1032,927)" d="m0 0 2 1-2 6-2 8 5 1 7 10 1 4-3 3-4 1-18-9 3-1 1-8 7-11z" fill="#0BA3E9"/>
<path transform="translate(677,1231)" d="m0 0h11l5 2v1l6 1v1l-10 1-12 4-8 5-5 4-4 5-3 1-1-4 5-8 10-9 3-3z" fill="#0AC4F0"/>
<path transform="translate(1349,443)" d="m0 0h33l1 2-9 1v1l-14 1-9 3-18 3-7 1 4-3-1-2-4-1 15-4z" fill="#1096DE"/>
<path transform="translate(382,1421)" d="m0 0 3 4 1 4 4 2-1 10v6l-1 2-5-1-9-10-3-5 1-2 3 1 2-1 3-6h2z" fill="#2850A7"/>
<path transform="translate(1201,1234)" d="m0 0 5 1v2l2 1h-15l-13 2-16 8-2 5-3 5-3-1v-8l4-6 11-7 4-1v3l8-1 5-2z" fill="#1291D9"/>
<path transform="translate(1422,513)" d="m0 0 5 1 8 4 5 4 1-4 5 11v7l-3-3-4-8-5-3-9-2-1 30-2 9-5 2-5-1v-2h-3v-2l7-1 5-4 1-3z" fill="#1C89D1"/>
<path transform="translate(593,676)" d="m0 0v3l-9 16-9 19-8 20-7 17-2 4v-9l3-4 1-8 3-2 1-9 1-2h2l2-8 5-10 6-11 8-14z" fill="#1195DD"/>
<path transform="translate(1419,982)" d="m0 0h2l-2 4-8 11-12 13-7 8-16 14-13 10-8 6-2-1 5-5 8-6 7-6 9-6 3-5 8-7 4-5 5-5h2l2-4 4-5h2l2-4z" fill="#1D6EBD"/>
<path transform="translate(1029,771)" d="m0 0 1 2-9 13-10 13-1 2h-2l-2 4-11 14-5 7-4-1 12-16 13-16 3-5 8-8 3-5z" fill="#0F9AE1"/>
<path transform="translate(1021,1022)" d="m0 0 4 2 10 9 12 13 11 15 12 19 4 9v6l-8 7-2-1 7-8-1-8-7-12-8-11-3-3-1-3-5-5-8-11-2-1v-2l-4-2v-2h-2l-6-7-3-3z" fill="#1D6EBD"/>
<path transform="translate(550,958)" d="m0 0 2 2v3h2l2 5 1 2h2v3l4 1-2 1 4 3 3-3 2 6v4l-5 3-3-1-4-6-4-2-4-12-1-8z" fill="#1867B8"/>
<path transform="translate(541,851)" d="m0 0h1l1 23 1 4 2 1v7l-3 1-1 3-2-5-2-1-1-4v-28l2 2z" fill="#0BA4EA"/>
<path transform="translate(754,797)" d="m0 0 5 1 4 3-2 2v2l4 1h-3l-1 4 2 2v3l-5 2-3 2-3-1 1 8h-2l-2-10-1-2h2l1-4 1-2h2l2-6h-3v-2h3l-2-1z" fill="#E44F97"/>
<path transform="translate(1383,444)" d="m0 0 8 1 8 3 2 2h-6l-1 1-39-1 4-2v-3z" fill="#1C80CA"/>
<path transform="translate(1514,1228)" d="m0 0h13l4 2v1h-10l-2-1v2h6v1l-15 1h-6l-1 1-19 1v-2l13-4 4-1z" fill="#06C6F8"/>
<path transform="translate(1094,1229)" d="m0 0h9l16 3v7l-9-2-27-4-2-2z" fill="#0DA6E6"/>
<path transform="translate(858,507)" d="m0 0h43l1 1 17 2v1h-14l-34-1-30 1 4-3z" fill="#255DA9"/>
<path transform="translate(620,1238)" d="m0 0h19l4 2-2 1 10 6 3 5 1 3-4-1-8-6-12-5-10-3z" fill="#1686D1"/>
<path transform="translate(1450 1e3)" d="m0 0v3l-7 12h-2l-2 5h-2l-1 5h-2v2h-2l-2 5h-2l-2 4h-2l-1 4h-2l-2 5-4-2 9-9 2-5h2l3-6h2v-2h2v-2h2l2-5 4-5 2-1v-2h2l2-5z" fill="#1A1443"/>
<path transform="translate(1380,1164)" d="m0 0h27v5h-20l-4 1h-7v-5z" fill="#08BAF2"/>
<path transform="translate(867,1031)" d="m0 0h1v7l-7 26-3 10-2 10-2 1-2 7-2 10h-1l1-11 4-16 4-14h2l1-8 2-5 1-7h2z" fill="#4663A2"/>
<path transform="translate(606,1185)" d="m0 0 4 5 7 14 4 13 2 11h-2l-8-23-7-12-1-4-2-3z" fill="#0F9FE3"/>
<path transform="translate(846,1111)" d="m0 0h1v9l-4 18 1 6 2-3 1 10-2 13h-1l-1-5v-13h-2l-1 12h-2l3-23z" fill="#3276B5"/>
<path transform="translate(883,551)" d="m0 0h23l8 1 6 3-2 2h-5l-3-1-6 2-1-2-16-1 1-2h-6z" fill="#E34F97"/>
<path transform="translate(834,509)" d="m0 0h12v1l-38 7-8 2-4-1 1-3 21-4z" fill="#1A1146"/>
<path transform="translate(931,1037)" d="m0 0h14l6 2 2 5-6-1-1-1h-11l-3 1h-10l1-3z" fill="#0F1651"/>
<path transform="translate(1630,1231)" d="m0 0h9l4 2 3 3-26 1-17 1 3-3 24-2z" fill="#09A4F0"/>
<path transform="translate(717,1235)" d="m0 0 6 1 7 4 2 5 4 5v2l-4-2-12-7-3-2v-3z" fill="#1989D0"/>
<path transform="translate(1355,443)" d="m0 0h27l1 2-9 1v1l-14 1-1 1h-7l-4-2v-2z" fill="#0C98F0"/>
<path transform="translate(1019,780)" d="m0 0 2 2-5 6-2 1-3 5-13 16-10 13v-3l9-13 10-13h2l1-4 7-8h2z" fill="#983A7E"/>
<path transform="translate(854,1084)" d="m0 0 1 3-4 19-3 16-4 19-2 1 1-10 3-12 2-13 2-7 2-10z" fill="#1496DD"/>
<path transform="translate(386,1429)" d="m0 0 4 2-1 10v6l-1 2-5-1-1-3 2-11z" fill="#313A57"/>
<path transform="translate(1678,1247)" d="m0 0 4 2 7 8 6 10 3 10v5l-2-4-3-8-8-11-7-7 2-2z" fill="#1A7AC5"/>
<path transform="translate(929,1108)" d="m0 0 1 3-2 6 2 2-5 2v-2h-2l-2 5h-2v2l-4 1-1 3h-2l2-6 9-9 2-4z" fill="#0F97E0"/>
<path transform="translate(846,596)" d="m0 0h6 3l3 4-4 1h-10l-5 1-8 1v-2h2v-2h3v-2z" fill="#D74997"/>
<path transform="translate(866,549)" d="m0 0h26l14 1v1l-23 1-3 1v-2h-13l-1 1-8 1h-18v-1z" fill="#C43D8B"/>
<path transform="translate(877,1169)" d="m0 0 3 4 3 1 2-4 2-1-2 5-7 11-2 4h-2l-1 4 1-9z" fill="#0E99E1"/>
<path transform="translate(574,711)" d="m0 0 1 3-8 20-7 17-2 4v-9l3-4 1-8 3-2 1-9 3-3h2z" fill="#1686D1"/>
<path transform="translate(1152,597)" d="m0 0h7l12 3v2l-3 2-10-1-15-4 4-1z" fill="#1197DC"/>
<path transform="translate(1269,1260)" d="m0 0h2v3l4 2-9 11-3-1-2-4 6-8z" fill="#1C86CE"/>
<path transform="translate(1280,1248)" d="m0 0 1 3-4 4 4-2 3 1-9 10h-5v-6l7-9z" fill="#0DA1E6"/>
<path transform="translate(585,1173)" d="m0 0 6 2 6 3 4 1 5 5-1 3 2 3v2h-2l-7-8-6-5-7-4z" fill="#08CAF4"/>
<path transform="translate(1699,1409)" d="m0 0 1 4-7 14-8 10-1-2-2-1 7-9h2v-4h2v-3l3-2z" fill="#201449"/>
<path transform="translate(951,871)" d="m0 0h2l-1 2zm-1 1m-1 1 2 1-1 8-8 11-3-1-1-3 10-14z" fill="#0CACE9"/>
<path transform="translate(900,941)" d="m0 0 1 2 3 1-3 9-2 5-3 1-1-1-2 5-1-3 6-16z" fill="#0DB3E9"/>
<path transform="translate(582,1168)" d="m0 0 5 1 10 6 4 4-5 1-1-2-10-5-1 2-4-2-1-2-3-2h6z" fill="#0DAAE7"/>
<path transform="translate(1094,1229)" d="m0 0h9v2h-2v2h2v2l-14-1-8-2v-1z" fill="#1B80CA"/>
<path transform="translate(1056,1060)" d="m0 0 4 4 11 18 3 7v6l-8 7-2-1 7-8-1-8-7-12-7-10z" fill="#1C6DBC"/>
<path transform="translate(935,1041)" d="m0 0h11l3 2 8 1v3l2 1-2 2-8-1-2-1v-3l-4-2-8-1z" fill="#0EA7E5"/>
<path transform="translate(1277,483)" d="m0 0 2 1-12 11-12 13-10 11v-3l1-2h2l2-4 4-5h2l2-4 16-16z" fill="#1789D3"/>
<path transform="translate(1323,1235)" d="m0 0 4 1v3l-3 1-17 2-10 3-8 4 2-4 10-5 5-2 17 1z" fill="#148BD5"/>
<path transform="translate(899,507)" d="m0 0 13 2 7 1v1h-14l-23-1-11-1v-1z" fill="#1769B9"/>
<path transform="translate(931,590)" d="m0 0 6 1 2 1v-2l4 1 1 2 8 3-1 2-11-1-11-2v-1l7-1-5-2z" fill="#E55097"/>
<path transform="translate(1181,584)" d="m0 0 1 3 3-1-2 4-3 3-6 7h-3l2-6z" fill="#1294DC"/>
<path transform="translate(1504,1233)" d="m0 0 18 1v1l-9 1-20 1-16 1 3-2 4-1 19-1z" fill="#1B7BC7"/>
<path transform="translate(691,1229)" d="m0 0 13 1-1 4-4 1h-9l-2-3-6-1v-1z" fill="#0CB0ED"/>
<path transform="translate(1387,1168)" d="m0 0h16l6 2v1h-19l-18 3 2-2z" fill="#1E6ABA"/>
<path transform="translate(1387,446)" d="m0 0h8l6 3-3 1-4 1h-11l-12-2v-1h18l1-1z" fill="#0B9BEF"/>
<path transform="translate(850,1124)" d="m0 0h1l-1 9-2 11-5 1 1-8 3-10z" fill="#06D5FA"/>
<path transform="translate(1230,1242)" d="m0 0 5 2 7 8 2 4-5-2-10-8-2-2z" fill="#109BDF"/>
<path transform="translate(1376,1028)" d="m0 0 2 1-5 5-10 8-8 6-2-1 5-5 8-6 7-6z" fill="#1D77C3"/>
<path transform="translate(1358,471)" d="m0 0h19l11 2v1h-13l-2-1h-14l-14 3h-5l4-2z" fill="#157DCA"/>
<path transform="translate(1443,1191)" d="m0 0 6 1 6 12 2 9-4-5-8-14z" fill="#1A83CC"/>
<path transform="translate(1093,572)" d="m0 0 6 2 4 3-1 2 4 2h-2v2l-6-2-4-2-1-4z" fill="#138ED7"/>
<path transform="translate(1419,982)" d="m0 0h2l-2 4-8 11-5 6-6 3 2-4h2l2-4 4-5h2l2-4z" fill="#1D7AC6"/>
<path transform="translate(369,1387)" d="m0 0h1l1 12 1-2 1-7h1l1 13-2 2-1 5-3-4z" fill="#0AA5EB"/>
<path transform="translate(620,1238)" d="m0 0h19l4 2-5 1v2l-4 1-13-4z" fill="#2066B3"/>
<path transform="translate(850,1108)" d="m0 0h1l1 5v9l-2 6-2-1-1 5h-1l1-10z" fill="#05DAFC"/>
<path transform="translate(1426,461)" d="m0 0 5 2 6 5 7 8h-3l-12-9-2-2z" fill="#1D5FB2"/>
<path transform="translate(1382,1164)" d="m0 0h25v5l-10-4v2h-10v-2h-5z" fill="#06D0F9"/>
<path transform="translate(867,1031)" d="m0 0h1v7l-7 26-1 5h-1v-8l4-13 1-7h2z" fill="#2286CA"/>
<path transform="translate(933,1038)" d="m0 0 9 1 6 1 2-2 3 4v2l-6-1-1-1h-13l-3-3z" fill="#2751A8"/>
<path transform="translate(1415,454)" d="m0 0 6 2 6 4 1 5-5-2-6-3-3-3z" fill="#1A7BC7"/>
<path transform="translate(1460,885)" d="m0 0h1v10l-6 21-1-4 2-6 2-15z" fill="#1E71BF"/>
<path transform="translate(549,790)" d="m0 0 1 4-3 32h-1l-1-19 1-1 2-14z" fill="#1C76C4"/>
<path transform="translate(1356,440)" d="m0 0h23l-3 3h-17z" fill="#140D42"/>
<path transform="translate(870,1208)" d="m0 0h1v10l3-1 3 5-8 4-1-4z" fill="#1486D2"/>
<path transform="translate(842,1146)" d="m0 0h1l1 22-3 3-1-7z" fill="#05D9FC"/>
<path transform="translate(1061,1103)" d="m0 0 2 1-10 8-15 11v-3l9-7z" fill="#1C70BE"/>
<path transform="translate(554,757)" d="m0 0h4l-4 16-3 16h-1v-10l4-15z" fill="#1A7DC9"/>
<path transform="translate(617,1207)" d="m0 0 2 3 4 18h-2l-5-15v-5z" fill="#1D80C1"/>
<path transform="translate(1606,1235)" d="m0 0h28v1l-31 2z" fill="#1884CF"/>
<path transform="translate(1493,1231)" d="m0 0 5 1v2l4-1 1 2-19 1v-2z" fill="#09ABEE"/>
<path transform="translate(1440,949)" d="m0 0 1 2-9 16-7 11-1-4 4-5z" fill="#1D70BF"/>
<path transform="translate(645,879)" d="m0 0 9 1v1l-21 3h-6l3-2z" fill="#D94A97"/>
<path transform="translate(1441,1196)" d="m0 0 5 1 3 4v2l3 1 1 7-2-2-2 1v-4h-2l-1-7-4-1z" fill="#181342"/>
<path transform="translate(1479,949)" d="m0 0 1 3-3 9h-3l-2 5-3 1 1-5 1-3 2-2 4-3z" fill="#242152"/>
<path transform="translate(854,1084)" d="m0 0 1 3-5 23-3 2 3-12 2-10z" fill="#198ED4"/>
<path transform="translate(883,987)" d="m0 0 1 4-4 13h-2v6l-1 2h-2v-6h2l1-5z" fill="#1A8ED3"/>
<path transform="translate(937,890)" d="m0 0 4 1-1 4-5 4-6 3 2-4z" fill="#08C7F5"/>
<path transform="translate(384,1425)" d="m0 0h1v9l-2 11-2 1-3-5 3-2 1-9z" fill="#2F5583"/>
<path transform="translate(618,1069)" d="m0 0 4 5 3 3 3 5 2 3-1 3-4-5-3-3-4-8z" fill="#1A1443"/>
<path transform="translate(902,508)" d="m0 0h11l19 2-1 2h-10l-9-2-10-1z" fill="#333B78"/>
<path transform="translate(549,754)" d="m0 0 2 4-5 15-1 8-2 1 1-10z" fill="#138ED7"/>
<path transform="translate(1358,445)" d="m0 0 16 1v1l-14 1-1 1h-7l-4-3z" fill="#07A2FD"/>
<path transform="translate(563,733)" d="m0 0 2 3-3 9-3 10h-1v-9l3-4 1-8z" fill="#1392DA"/>
<path transform="translate(461,1229)" d="m0 0h6l6 8-1 3-8-8z" fill="#1195DC"/>
<path transform="translate(1339,1201)" d="m0 0h3l-2 6-3 8-2-2-1-5h3l-1-4z" fill="#1D80CA"/>
<path transform="translate(1514,1228)" d="m0 0h13l4 2v1h-14z" fill="#05DEFE"/>
<path transform="translate(998,806)" d="m0 0h2l-2 4-10 13v-3l9-13z" fill="#B83684"/>
<path transform="translate(1631,1229)" d="m0 0 17 2-1 2-4 1-6-1v-1l-7-1z" fill="#05DEFE"/>
<path transform="translate(1501,1229)" d="m0 0 7 2-1 2-9 1-1-4z" fill="#05DEFE"/>
<path transform="translate(986,826)" d="m0 0h3l-2 4-4 6-2-3 2-4z" fill="#148ED8"/>
<path transform="translate(755,754)" d="m0 0h4v2l3 1-1 3-4 1-1-2h-3z" fill="#E55097"/>
<path transform="translate(1140,594)" d="m0 0 11 2 1 2-5 1-9-3z" fill="#0BA9EB"/>
<path transform="translate(1175,591)" d="m0 0 1 3 3-3 1 2-6 7h-3l2-6z" fill="#1F7AC2"/>
<path transform="translate(1151,600)" d="m0 0 15 1 5-1v2l-3 2-10-1-7-2z" fill="#2169BA"/>
<path transform="translate(833,1203)" d="m0 0h2l1 2v8l-4-1z" fill="#05DAFC"/>
<path transform="translate(1408,1198)" d="m0 0 4 1 5 3 1 4h-3l-8-6z" fill="#3D204F"/>
<path transform="translate(585,1173)" d="m0 0 6 2 6 3v4l-4-2-8-5z" fill="#0AC3EF"/>
<path transform="translate(1201,1234)" d="m0 0 5 1v2l2 1h-5v-2l-18 1 3-2z" fill="#0F99E1"/>
<path transform="translate(1323,1065)" d="m0 0 2 1-12 6h-3l1-3z" fill="#1D73C1"/>
<path transform="translate(1046,1049)" d="m0 0 8 6 2 3-1 4-3-3-1-3-5-5z" fill="#1C7EC9"/>
<path transform="translate(1029,771)" d="m0 0 1 2-7 10-2-2 4-6z" fill="#0AB8EE"/>
<path transform="translate(636,1240)" d="m0 0 5 1 2 2v4l-7-2v-3l2 1v-2z" fill="#1B81CC"/>
<path transform="translate(613,1197)" d="m0 0 2 3 2 4-1 6-2-2-2-5z" fill="#1198E0"/>
<path transform="translate(570,1165)" d="m0 0 10 1 2 1v2l2 1-11-2z" fill="#09C5F1"/>
<path transform="translate(1487,922)" d="m0 0 1 4-5 17h-1v-7l3-8z" fill="#3F4C7A"/>
<path transform="translate(1421,718)" d="m0 0h2l9 13 1 3h-2l-6-9-4-5z" fill="#151041"/>
<path transform="translate(800,522)" d="m0 0 10 1v1l-13 3-4-1 5-1v-2z" fill="#138DD7"/>
<path transform="translate(1355,443)" d="m0 0 13 1v1l-10 1h-10l4-2z" fill="#0DA0E7"/>
<path transform="translate(372,1426)" d="m0 0 1 2h5l-1 4-3 1-4-3 1-3z" fill="#1767B8"/>
<path transform="translate(850,1124)" d="m0 0h1l-1 9-2 4-1-1v-9z" fill="#109BDF"/>
<path transform="translate(1419,982)" d="m0 0h2l-2 4-7 10-1-2 3-5z" fill="#1D71BF"/>
<path transform="translate(951,871)" d="m0 0h2l-1 2zm-1 1m-1 1 2 1-1 6h-2l-4 4 1-5z" fill="#07C7F6"/>
<path transform="translate(743,844)" d="m0 0 4 1-1 1 3 2v2h-3l-1 2-2-3-2-1z" fill="#DA4A97"/>
<path transform="translate(944,885)" d="m0 0 3 1-5 7-3-1-1-3 3-3 1 2z" fill="#0F9CE2"/>
<path transform="translate(543,866)" d="m0 0 2 1v12l-2-1-1-6v-5z" fill="#05DEFE"/>
<path transform="translate(1029,584)" d="m0 0 6 2 6 3v1h-6l-6-4z" fill="#D74892"/>
<path transform="translate(1410,452)" d="m0 0 5 1-1 4 4 2-6-1-3-3z" fill="#1986D0"/>
<path transform="translate(1678,1247)" d="m0 0 4 2 4 5h-3l-1 2-4-5 2-1z" fill="#1A84CF"/>
<path transform="translate(1502,1229)" d="m0 0 10 1 1 3 3 1-9-1v-2l-5-1z" fill="#0CA3E8"/>
<path transform="translate(590,1172)" d="m0 0 4 1 7 5-3 2-2-1-4-4-2-1z" fill="#0EB1E8"/>
<path transform="translate(1397,1165)" d="m0 0 9 3-3 1-15-1v-1h9z" fill="#0BA5EB"/>
<path transform="translate(1691,1266)" d="m0 0 4 1 3 10v5l-2-4-3-8z" fill="#285EAE"/>
<path transform="translate(489,1232)" d="m0 0 3 2v8l-2 1-2-1z" fill="#1095DE"/>
<path transform="translate(1021,1022)" d="m0 0 4 2 6 5 1 4h-2l-6-7-3-3z" fill="#1C72C0"/>
<path transform="translate(1452,916)" d="m0 0h2l-1 7-2 5h-1v-8z" fill="#1E72C0"/>
<path transform="translate(1019,780)" d="m0 0 2 2-5 6-5 2 6-8h2z" fill="#B23784"/>
</svg>
